<svg xmlns="http://www.w3.org/2000/svg" id="ftcb-" class="mapello" viewBox="0 0 650 380">
    <defs>
        <clipPath id="ftcb--clipMapBorder" clipPathUnits="userSpaceOnUse">
            <rect width="650" height="380" rx="0" x="0" y="0" />
        </clipPath>
        <pattern id="ftcb--noise" patternUnits="userSpaceOnUse" width="60" height="60">
            <path fill="#ffffff00" d="M0 0h60v60H0z" />
        </pattern>
    </defs>
    <g class="macro-layer" id="outline" clip-path="url(&quot;#ftcb--clipMapBorder&quot;)"
        style="will-change: opacity; fill: url(&quot;#ftcb--noise&quot;);">
        <path d="M-45.4 2h718.9v376h-719Zm23.7 282.8h166.6v90H-21.7Zm166.6 36.3h78.3V375h-78.3Z"
            class="outline" />
    </g>
    <g class="macro-layer choro" id="United States of America ADM1"
        clip-path="url(&quot;#ftcb--clipMapBorder&quot;)" style="will-change:opacity">
        <path
            d="M376 267.8V262l-1.2-1.8 2.5-3-1.2-2.8 3.5-5.6 2-1 .6-6 1.9-2 23.6-1.7 1.2 1.3-.9 41.9 2.6 20.7-1.2 1-4.3-1.2-8.5 3.8-3.5-6.3.8-4.6-22 1.2-.3-3.7 1.4-.1-.1-3.6 1.8-4.5 3.7-4.5-1.9-.4 2.8-2.1-2.2-1.6Z"
            id="Mississippi" class="adm ssc-1-1" />
        <path
            d="m476.9 207.6 15-1.8 46-8.8 2.3 4.3-7.4 5.6 6.4-2.2 2.8-.1 1.8 3.3-3.1 5.3-5.4.9.9 4-2.4 2.2 6-1-2.6 3.9-5.6 1.3-5.8 6.3-1.3 3-.3 4.4-1-.7-5.6 1.7-14.8-10.7-12.5 2v-1.7l-3.4-2.5-15 1.4-7.6 4-13.4 2v-3.4l2.8-1.4 2.3-4 3-.3 2.5-2.7 2.6-1 .6-2.2 2.8-2.4.4 1.4 3.2-2.9 2.9-.2 1-2.7 2-1ZM538 197h.4zm1.4-.3h.2z"
            id="North Carolina" class="adm ssc-1-2" />
        <path
            d="m244.1 210.9 10.4.8 21 1 60 .9v7l2.4 15.3-.2 24.4-4.5-1.5-3.9-2.9-.7 1.2-4-.4-5.9 1-2.2 2-6.6-3.8-2.8 3-.5-2.4-1.8 1.3-3.4-2.4-2.2 1.9-.9-2-4.7-2.4-9.3-1-.2-1.8-5.4-.7-3.3-2.7 1-27-32.8-1.9Z"
            id="Oklahoma" class="adm ssc-1-1" />
        <path
            d="m537.8 176.8 2.7-1.2-3.6 10.9-1 .9V183Zm0 20.3-45.9 8.7-15 1.8-21.8 2.9 5.6-2.7 2.5-2.4 1.3-3.5 3.7-2.6 3.6-4.3 1.7 3.3 3.3.6 1.9-2.1 1.7 1.2 7-4.7 2.3-.7-.4-2.5 2.4-4.7 2.3-6.6v-2.2l4 1.8 2.3-6.6 1.5 1 3.8-6.5-.1-4.2 6.2 3.6.7-2.8 3 .7-.6 1.3 4.8 2 1.3 1.8-.6 2.3-1.5 3 1.2 1.4 2.2-1.1 2.1 2.5 2.8-.3 4.7 2.7-.2 3.8 1.6 3.2-2.4 2.4 3 1.7.4 1.6h3l2.4 4.7h-.2l-1 .3h-.4Zm-.4-10.5"
            id="Virginia" class="adm ssc-1-5" />
        <path
            d="m512.4 162.9-.7 2.8-6.2-3.6.1 4.2-3.8 6.4-1.5-1-2.3 6.7-4-1.8v2.2l-2.3 6.6-2.4 4.7.4 2.5-2.2.7-7.1 4.7-1.7-1.2-1.9 2.1-3.3-.6-1.7-3.3-3.5-1.2-4.9-6v-4l2.7-.8 1.2-2.2-.7-2.7 1.4-3.5 1.9 1.9 1.3-5.9 2-2.2h2.6l3-3.8.5-6.5.9-3.6-1.3-3.4 1.4-1.1 2 12.6 10.8-1.8 1.2 7 3.5-4.4 1.4.2 1.4-2.8 3.5.9 2.6-3 3.4 1.2Z"
            id="West Virginia" class="adm ssc-1-1" />
        <path
            d="m368 315.7 3.8.1-1.6 1.1Zm8-47.9 1.1 7.5 2.2 1.6-2.8 2.1 1.9.4-3.7 4.5-1.8 4.5.1 3.6-1.4.1.3 3.7 22-1.2-.8 4.6 3.5 6.3-1.5.6-6.2-2.6-2 2.5.6 2 6 .4 3.3 1.5 1-2.2 2.5 2.2-4.3 4.4 2.3 2.4 4.5 1v3.7l-4-2.7-4.1-.9-.4-2.1-2.2.8-.2 3.4-2.1 1.2-.4-2.1-4-.4-1 2.5-2.2.4-5.1-1.8 1.4-.8-1.4-2.7-2.9-.2-1.5-2.8-2.7.6-.4-1.8-3.9 1.5 1.7 2.1-3 .8-10.2-3-7.9 1.4.5-4.2 1-2.2-.6-5.2 2-4.3.4-3.1-4-7.4.6-1.4-3-4-.3-14.2Z"
            id="Louisiana" class="adm ssc-1-1" />
        <path
            d="m436.3 81.7 2.3-2 1.2 2.4ZM414 143l1.9-2 2.2-5.4.8-6.4-1-5.1-3.5-7 .7-3.5-1.1-2.7 2-4.2-.2-5 1.4-2.9 2.4-.9 1.5-3.4.2 4.9 1.3 1 1-2.6-.3-4.7 4.2-2.2-2.2-2.2 1.2-2.6 2.3-.6 5 1.3 1.3 1.6 5.7 1.3L444 94l-1.6 1.2 2 3 .2 5.2-2 1.8-.8 3.5-1.5.2-.7 3.2 2.9 2.1 3.4-5.9 3.1-1.7 3.4 2.8 2.2 8.2 1.5 2.8-.3 5.7h-3l-.5 4-1.4.9-.4 4.1-2.3 4.3-13.7 2.2v-.9Zm-30.8-82.1 6.4-4.7-1 2.4-4.4 2.9Zm-9.7 18.5 3.7-1.7 1.5-1.7 4.1-1 11-9.3h4.3l-4.6 3.8-1.7 3 .3 2.5 1.7-2 5.4.8 3.9 4.4 3.1-.7 3.4 1.2 4.4-4 6.1-.8 4.5-1.8.3 4 8.3-1.6.5 4 2.6 3-4.4 1.3-3-1.2-1.2 2.7-2-1.7-5-.6-1 1.6-5.3.8L413 87l-3.1 2.1 1.5-2.8-2.4.1-1.4 2.6-.7-2-4.8 10.7-1.4-1 .6-2.4h-2.3l.6-4.4-3.1-1.3-.7-2-6.2-.7-3-1.4-10-2Z"
            id="Michigan" class="adm ssc-1-4" />
        <path
            d="m575.8 119.2 1.8-2.5 1.6 1.5ZM547 106.5l8-1.7 11.4-2.5 2-2.9 2-.7 1.4 2.9-1.5 5.1 3 .3 4.6 5.6 4.3-1.5.5 1.5-5.6 3.5-.6-2.6-4 4.4-1.4-2.2-.5-.4-2.6-3.7-4 1.2-16.9 3.7Z"
            id="Massachusetts" class="adm ssc-1-4" />
        <path
            d="m121.4 66.9.1-6 7.8-34.4 8.8 1.9-3 13.6 2.3 4.5-1 3.3 3.4 3.3 4.9 9.6 2.8.5L145 68l-.2 5.4-2 1.1-.4 2.6 1.7 2 4-2.6 1.5 1.7-.2 2.7 2.2 5.3-.5 2.6 3 2.5.3 4 1.3 1.5 1.5-1.8 3.1 1.4 3-.6 5.6.6.7-2 1.8.3 2 3.4-5.4 34-30-5.3-29.8-6.2 5.5-24.5 2.4-4.5-2.8-2.4.5-2.6 3.7-3.5 1.6-3 5.4-7.2Z"
            id="Idaho" class="adm ssc-1-1" />
        <path
            d="m449.7 289.5 2 3.8 31.4-2.1 2.4 2.5-.7-5.3.9-1.2 5.4.6 5.5 13.4 4.2 7 6.8 8.6-1.9 2 5.5 8.6 5.7 9.8.9 4.5.5 8.9-2.5 9.5-7.7 3-4.8-9-5-.5-2.4-6.3-2.2-1-1.3-5-3 .8-2.1-2.8-3-5.7 2-4.9-3.6-2 .4 4.4-2.2-1.8 1-8.5-.5-5.9-2.6-3.5-3 .3-5-6-3.7-3.3-4.2-2-4.3 1.7-5.5 4.6-5 1.3v-1.6l-5.6-4.8-7.5-2-7.4.7-3-2.3.3 2-2.8 2.1V300l-.2-3-3-2.4.4-1.8ZM493 346"
            id="Florida" class="adm ssc-1-0" />
        <path
            d="m239.7 126.8 55.6 3.1 5.5 3.3 1-1.3h5.5l6.2 3.1 2.4 2.3 1.7 6.2 2 3.3-.1 3.8 1.6 1v3.7l1.2 4.3-.8 2.1 1.3 2 1.7 3.8 3.1 4.4-70.5-2 .9-13.9-20.6-1.5Z"
            id="Nebraska" class="adm ssc-1-1" />
        <path
            d="M75.5 23.5h1l1.2 5.2Zm53.8 2.9-7.8 34.4-.1 6-19.3-4.5h-5.4l-7 .7-3.9-1.3-5.6.5-2.8-2.5-2.6-.4-4.7 1-4.3-2.9.7-4.1-2-3.8-2.7-1.5-2.2-1.7-1.8.4-1.3-1.7 1.8-1 .2-2.5 1.6-1-2.3-1 .3-2.2 2.5.2-1.9-2-.4-5.4.5-4.7-1.2-2.7.3-3.7 2.2-2 3.8 3.8 5.3 2.4 5.9 1.4.1 9-1.7 3.2-1.4-1-.5 2.7 2.6-2.4 2 .1V33l1-3 2.5-2.3-.5-4.3-2-2 2.8-1.9-.4-2.6-1.3.2.2-3.7Zm-54.9 9.2"
            id="Washington" class="adm ssc-1-4" />
        <path
            d="m244.1 210.9-.5 7-.4-.1-2.6 34.6-2.3 27.7-41.2-3.8.7 3-19.5-2.3-.8 6.2-9.8-1.3 10.9-78L202 207Z"
            id="New Mexico" class="adm ssc-1-4" />
        <path
            d="m315.9 137.3-2.4-2.3-6.2-3-5.4-.1-1.1 1.3-5.5-3.3-55.6-3 2.3-27.6 1.3-13 35.8 1.5 35.9 1.9-2.9 4.5 3.9 4.2-.1 24.9-1.2 3.6 1.3 1.8-2 5.2Z"
            id="South Dakota" class="adm ssc-1-1" />
        <path
            d="m243.6 217.8 32.9 2-1.1 26.9 3.3 2.7 5.4.7.2 1.7 9.3 1.1 4.7 2.5.9 1.9 2.2-2 3.4 2.5 1.8-1.3.5 2.5 2.8-3 6.6 3.7 2.2-2 6-1 3.9.4.7-1.2 3.9 2.9 4.5 1.5 1 1.3 4-.2.2 7.4.3 14.1 3 4.1-.5 1.4 3.9 7.4-.3 3.1-2 4.3.5 5.2-1 2.2-1.8 3 1.2 1.4-3 .3-8 3.8 2.6-2.5-2.6.7.8-3.2-3 .8-1 2 1.7 3.4-3 1.8-2.9 4.3-9.6 3.8-5.9-1.4 3 3.6-4.5 2.8-5.2 2 2.2.4-1.7 2.5-4-.2 2.9 2.6-2 5-.8 4.5H301l4 14.2-2 1.6-3.3-2.6-7.5-.7-2.6-2.2-8-3-1.8-5.8-2-2.4-.3-6.4-4.7-4.6-.5-2.4-4.3-4.4-1-4.2-2.9-5-.2-2.3-4.3-5.1-3-1.9-1.6-3-7.3-.4-2.6-1.4-4.8 1.9-2.8 6.8-3.5 3-3.1-1-4.2-3.6-2.7-.8-5.6-5-1.5-4 .1-3.7-2-5.8-5.4-4.3-5.9-7.6-2.9-2-1.5-3.6-1.6-1-.7-3 41.2 3.8 2.3-27.7 2.6-34.6Zm72 115.6-5.5 4 .3-1.3ZM305 366.2"
            id="Texas" class="adm ssc-1-1" />
        <path
            d="m37.6 101.9 17.9 5 23.3 6.6L68.4 154l17.1 25.7L98 198.5l15 22.6 1.8 8.1 1.8 3-3.5 1.6-1.8 2.2-1 5.1-2.6 1.7-.4 5 1.8.6-1 3.5-2.2.1-27.7-3.3-1-2.5.5-6-1.3-3.2-6-7.6-2.8-.8-.7-4H64l-4-3.2-2.9-4.5-9.8-3-1.4-2.3 2-7.3-2.3-2.4.8-1.1-3.2-5.6-3-8.4-1.5-2 .2-4 2.9-2.4-.9-2.8h-1.5l-2.6-4.3v-4.7l1-3.4 1 3 2.2 2.6v-3l-1.2-2.1-.5-4.9-1.1 3.9-2.7-3.3-2-.7 1.3-2-.7-4.3-1.7-2.3-2.4-6.3.6-5.5 1.4-2.6.3-4-1.5-4.3-2-3 .4-2.5 4.6-5.6 2.8-6.6Z"
            id="California" class="adm ssc-1-4" />
        <path
            d="m410.6 301.9-2.6-20.7 1-41.9-1.3-1.3-.1-.2 29-2.4 8 28.6 4.2 8-1.6 2-.5 3.9 1.7 4.2-.4 4 1.7 3.4-30.4 3.2-.3 1.8 3 2.4v3l-1.4 2.7-4.3-1.5-.4-3.3-1.7.2-.5 4.6Z"
            id="Alabama" class="adm ssc-1-1" />
        <path
            d="m450.9 233.7 13.4-2-2 4.7 5.3 2.1 5 6.9 3.7 2 4.3 3.6v1.4l5.8 4.1 1.8 5.2 2.7 1.7 1.7 4.4 2.6 1-2.3 2.8.3 4.7-2.6 5.2.5 6.3-5.4-.6-.9 1.2.7 5.3-2.4-2.5-31.3 2.1-2.1-3.8-1.7-3.5.4-3.9-1.7-4.2.5-3.9 1.6-2-4.2-8-8-28.6Z"
            id="Georgia" class="adm ssc-1-1" />
        <path
            d="m493.1 160.8-10.8 1.8-2-12.6-3-18.4 6.9-5.2.6 3.7 44-8.7 2.9 1.6 1 3.1 4.6 2.5-3.2 6 .6 5.8 5.4 3.9-.2 1.3-5.1 5.8h-.1l-3.5 1.9Z"
            id="Pennsylvania" class="adm ssc-1-4" />
        <path
            d="m335.6 220.5-.1-7-.4-29.4-2.3-1.3-3-4.4 2.4-3.9-4.6-2.6-3.1-4.4-1.7-3.7h13.3l28.6-1.4 3.4 3.1-.6 4.8 1.5 4.2 7.1 6.3 1 4.5 2.2-.7 3.7 1.4-2.2 6.7.1 2.3 5.2 4.5.6-.6 4.2 4-.1 4.4 2.7 4h1.7l-.6 5.7-2 1.2h-1.3l.2 3.2-1.9 4-7.1.4 3.2-4.4-1.2-2.7Z"
            id="Missouri" class="adm ssc-1-1" />
        <path d="m254.5 211.7-10.4-.8-42-3.9-23.5-3 2.2-17.7 5.3-37.5 51.3 5.7L258 156l-.9 13.9Z"
            id="Colorado" class="adm ssc-1-5" />
        <path d="m138 126.8 30 5.2-2.2 13.8 20.3 3-5.3 37.5-2.2 17.7-53.9-9Z" id="Utah"
            class="adm ssc-1-1" />
        <path
            d="m407.7 238-23.6 1.7 2.6-2.1-1.5-3.4 3.4-3.7-1.2-1.4 2.7-1.3-.5-2.5 2-3.9-.3-3.1h.6l.7-.1 15-1.2-.5-2.5 2.5.5 13.7-1.6 12-.7 19.7-2 .1-.2 21.8-2.9v3.4l-2 1-1 2.6-2.8.2-3.2 2.9-.4-1.4-2.8 2.4-.6 2.2-2.6 1-2.5 2.7-3 .4-2.3 4-2.9 1.3v3.4l-14.2 1.7-29 2.4Z"
            id="Tennessee" class="adm ssc-1-1" />
        <path
            d="m168 132 5.3-33.9 1.1-7.1 18.8 2.7 30.7 4 18.1 1.6-2.3 27.5-2.3 27.7-51.3-5.7-20.3-3Z"
            id="Wyoming" class="adm ssc-1-1" />
        <path
            d="m547 106.5.1 10 1.9 10.3 1 1-2.2 2 1.1 1.4-2.8 4 .3-3.5-9-3-4.6-2.6-1.1-3.1-3-1.6-43.9 8.7-.6-3.7 5.4-5 2.3-3.5-2.8-3.8-.3-2.4 5.3-2.7 7.2-.9 2 1 6-1.6 6.5-5.7-1-3.1.8-1.4-2.9-2.3.3-1.4 3.4-3 1-2.4 4.1-6 2-2 15.4-4 .8 5.4 1.9 4.5-.5 3.3L543 93l-.3 2 2 1Zm1.3 27.6 1.7-2.1 9.2-3.2 2.7-3-2.2 5.5-5.7 2.6-2.8 2-4.3 1.7.1-3.2Zm14.4-7 1.8.2-2.5 2.4Z"
            id="New York" class="adm ssc-1-4" />
        <path d="m335.5 213.6-60-1-21-1 2.6-41.7 70.5 2 4.6 2.6-2.4 3.9 3 4.4 2.3 1.3Z" id="Kansas"
            class="adm ssc-1-1" />
        <path
            d="m-7 362.3 1.6-.2-.6.6Zm-8.8-7.3.9.1-.4.7Zm-1.5-3.4h.7l1.1.6.4.5-1.4.2-.3-1Zm154.5 3.6-.1-1 .7 1Zm-5.8-4.7.3-.6h.8l.1.6-.5.4Zm-1.3 2.5.2-1 .9-.3.2.5-.8.8Zm.3-1.3-.3-.8 1.1-.2.5 1.1 1.2.1 1 .7 1 1.2-.9-.3 2 1.4.7 2.3-.8.2-.4-.9h-.7v-.8l-1.4-.3-.8-.8v-.7l-.5.4-.5-.6.4-.7-.8-1.4Zm2.6 4 .5.8 1.2 1-.2.4-1.2-.9-.6-1.3Zm-1.4-2.2-.4.4-.3-.6Zm-4.3-4.1 1-.5.5.6.3-.4v3.7l-.8-1.3.6-.3-.9-.8Zm1.7-.4-1-.8.3-.5h2.5l.5 1.3-.4.3.2.8-1.3.5Zm2-.7 1.4.7-.9.7Zm-7.2-5.6 1 .7 1.3-.3 1.1 1.4v.5l-1.2-1.5v.5l1.4 1.4.5 1.2h-.7l.3.9-1 1-.3-.8.2-.9-1.1-1.4-.7-1.6Zm-.4 5.1.4-1 1.6.6 1.6 2.6.5 2-.2.5-1.6-1.9-.8-.4-.5-1.6Zm-.3.8.4-.6.6 1-.6.7v-.9Zm-2.7-3.3h.5v.8Zm.2-.4 1.3-1.2 2.5.6.2 1 .6 1-.2.7-1.9-.8.5 1.1-.2.5-1-.4-.5-.9-1-.4Zm-26.9-6.1.3-.5 1.2.3-.8.6Zm-2.5 3.2.5-1.1 1-1.3h.5l-1 1.5v.4Zm-.1-2.5.2-1 .3.6ZM78 351l.4-.4.7.8Zm.9-.3-.4-.2.4-.7 1-.9 1.3.9.2.7-1.3.2-.5.6Zm1.2-1.8-.2-.3.7-.4Zm-5.7 5.5.8-1 1.3-.4.5 1.2-.3-1.6.5-.8 1.3.5-.2-1 1.7.3.8.5-.3 1.1h.8l-.5.8-1-.3.3.5-.5.6-1.3.3-.6 1-1.1 1.3h-.4l.6-1.8-.7.8-1-.3v-.9Zm4.2.8.7.3h-1.2Zm-19.4 10.3.3-.8.9-1v1Zm-1.6-2.2.7-.3.3 1-1-.2Zm1.2-15.8.1-.5 1-.4-.6 1ZM46 365.3l.7-.3 1-1.1.2.2 1.3-.5h1l.4 1.6-.8.5-1.4-.2-1.1.8-1.1-.2Zm-2.3 1.2.7.3-.6.4Zm-1.3.4.4-.4.8.6-1.1.2Zm2.2-29.6 1.4.4 1-.7h.7l1.1.7-.2 1 .1 1h-.9l-.7.4-2-1.5Zm-7.9 32.5.6-.3h1.6l.6-1.1h.7l-1-.7.3-.4 1.2-.2.2.8.7-.5.2.6-.3.9-.8.1-.8.8-.7-.2-2 .6ZM98.5 293l6 30.2 2.8 13.9 1.2.2v-.5l1.3.4.5-.9 1.4-.4v1.3l1.3.6.4.7 3 1.8.8 1.5 1.2-1.6.5-.2V338l1.8-1.5 1.4.8v.6l.5.6h.7l1 .7.6.8 1.2.3 1.5 1-.1.3 1 .8 3.7 3.6-.1.6h.9v.8l.8.1.4 1 .6-.3 1.6.5 1.8.1.3.5.8-.3.6 1-.2.7 1.3 2-.5 2.5-1.1.6-1-1.6.3-.8-1-2-1-.8-1.5 1.3h.4v1.7l-1.2-.8.4-1.5-.3-1.1-1.5-1v-.7l-1.6-.4-.5-.7-1.9-.3v-.8l-1-1.5 1.3.1-1.6-.4-1.2-1-.4-1.2-.2.7-1.5-.4-1.6-1.9-.5-1h-.4l.2.8 1 1.2.6 1.4-.5.5-.7-1-1 .8v-.7l-1-1.5v.6l-2-.5 1.9 1.1.7 1.3-.9.4-.3.6-.6-.6-.8-.1-2.3-1.2-1-1-1.3-.3-3.1-1.2.6-1-.5-.6v-1l-.4 1.3-1 .8H108l-1.4-.4.2-1-.6.7-2.4-.2-.8.1-2.3 1-1-.8H99l-.9-.4.2-.8-1.2.7-1.4-.5v-.6l-.5-.6-1 .4-.7-1 .2-1-.6.9-.4-.9-.1 1-.7.2-.3-1-.2 1-.5.4-.4-.5.8-1.4-.2-.3-.7 1.4-.2-.4-.3 1.1-.7.3.6.2 1.1 1.6-.7.9-.2 1.5-.4.2-2-.3-.9.8.2.7-1.5 1.3-.4-.3-.9 1.4h-1.2l-.4.4-1-.4.3-.8 1-.3 1.1-1.5-1.2.8-1-.7.4-1.1.7-1.2.3-1.5-.4-.8.7-.3 1.6-1.4.5.7.8-.4 1.6.3-1.4-.6-.8-.5.7-1.2.8-.5h-.6l-.7 1.2h-1.1l-.3-.2-1 .6-.3.7-.8.2-.7.8.3.6-.8.3-.7 1 .3.3-.9.9-.8-.1 1 .8-.6 1-.5.2-.5 1h-1l-.2 1-.8.2-.4 1.3 1.2.2 1 .9-.7 1.2-.7.1-.4 1.3-.7 1.2-.7.4h-1l-.3.7-1.2.4-.5 1.1h-.8l-1.2 1.2.4.5-.6 1-.4-.3L68 357l-.4-.4-.8 1.1-.2-.3-1.6.9-.8.7 1 .2-.6 1.2h-1.2l-.2.4h-1.6l-.2 1.2-.4-1-.8.2-.3.6-1.2.8-.2-.5-.8.2-1 .7-.7-.1.4-1.3h-.6l-.3 1-1 1.4-.5-.3-.3.6-.7-1.5-.2 1.6H52l-.2-.7-.6.1.4.6-1 .5.4-1.4 2-1L54 361l1.3-.9 1.5-.2.6.2.6 1.1.1-.6 1.3.6-.7-1.2.7-1.3 1.6-1.2 1.3-.4 1-.7.9.2v-1l1-1.3.6-.3 1-1.2 1-4.3.9-1 .4-1.1-3 1.4-1-.9.3-1-.8.6-.4.8.1 1.5-.6-.2-1.3-2.5-.7.7-1-1v-.5l-1.3.9-1.1.3-1.1.9-.5-.5.6-.5-.2-1.3-.4-1 1-1.3-1.2-3.7-.6 1.2-1.6.4H53l-1-.3.1-.6-.5-.6-.5-1.1-1-1 .5-.4h-1l1.1-.8.4-.7 1.3.7 1.1.3-.1.8 1-.6-.3-.4-1.4-.6H52l-1.4-.9h.6l-.7-1-.7.3.1-.8-.6-.4.4-.5-.8-1h1l-.6-.9h1v-1l1.5-1.8.8-.1.2-1.3.9-1.5 1-.5.8.5.8.9h.6l1-.7 1-1.4.5.5h1.9l1-1.6-.3-2-.7-1v-.5l.8.2.5-.5-.1-1-.5-.5-.5.6h-1l-1.6 1-.6.7v-.7l-.5-.8-.5.3.6.4-.4.5-.7-1-1.5-.1-1.5.3-2.3-1-.4-1 .3-.6-.5-.6.2-.6 1.1-.6-2.4-1-1.1-1.1 1.3-1 1.3-.3.6-.5 1-.3.2.3h1l-.5-.5 1-.7.7.2 1.4-.7 1.2.4-.6 1.5.2.7 1.2.3.8-.1.2.3h1.2l.4.5.6-1.2 1 .1-.1-.5-.8-.4-.7.2.1-.7-1.2-2 .7-.2.4.9-.2.5 1 1.1.5-.3.9.9h1V309l-.4.2-.6-.4h-.6l-.3.5-1-1 .5-1.1-.3-.5-1.2.1-2.2-.8-.3-2.2-1-1.5-1-1.2-1-.6-.4-.9-1-.5.9-.2.3-.6.3-1.5 1.1.3h2.3l.7-.2 1.5-1.4.6-2 .8-.6.3-.6 1-1v.5l1.7-.5 1.2-1h.5l-.2.8.5-.4-.5-.7.7-.7.8-.3-.2.5 2-.2 1.3-.9 1.1-1.4 1 .8.7.1v.4l-.7.5v.6h.8v-.4l.4-.7h.7l.4.4-.2.6.8.5.4-.5 1.2-.2.8.3h.8l-.5 1.5h1.3l-.3.4h.6l.6.4.4-.5.7-.2.3.3.8-.5h1.1l1.2.8h.9l.3.3 1 .2.6-.2H90l.7.4 1 .3.6-.4 2-.7 1 .3.9.6.8.1.8.6Zm38 57.8.8.4.7.8.3 1.8-.2.4-2-.6.2-.8-.6-1Zm.2 3.2v1l-.7-1.3Zm-2.1-3.8-.3.6-1-.6-.3-.8 1 .2Zm-.6.5.3 1-1.3-.1-.4-.7.5-1Zm-8.2-7.7h-.8v-.5Zm-93.2 28.3 1-.5.3-.9.7-.4.7.2v-.8l1.3-.4.5.3-.2.6-1.4.4-.7.8Zm6-51.7.6-1.3.3 1 1.2.4.6-.3.8.1.2 1 1 .9 1.7.7-.6.7-1-.3-.8.9-.6-1.3-.5-.3-.4-1-1-.5-.9.4ZM22 371.2l.8-.3.1.4Zm10-38.5 1.6 1.4-.8-.2Zm-14.3 38 1.5.3 1.4.8-1.6-.2ZM14 370h1.3l1 .3 1.2-.4-.1-.6.9.3-.6 1h-2Zm-5.3.1 1.1-.8.8.5-.2.4Zm-1.9-1h1.6v.5Zm-1.2-1.4.8.1.3.8-.6.1ZM2 369.4"
            id="Alaska" class="adm ssc-1-1" />
        <path
            d="m108.2 120.6 29.7 6.2-13.2 68.2-2 11-2.6 2.1-1.1-2h-4.3l-.8 8.3.2 5-1 1.7-15-22.6-12.6-18.9L68.4 154l10.4-40.4Z"
            id="Nevada" class="adm ssc-1-3" />
        <path
            d="M395.2 211.2h-1.7l-2.7-3.9V203l-4.1-4-.6.6-5.2-4.5v-2.3l2-6.7-3.6-1.4-2.2.7-1-4.5-7-6.3-1.6-4.2.6-4.8.5-3.2 2.3-1 1.6-6-1.9-2 .6-2.3 4-1 3-1.9 1.5-3v-4.4l-2.5-1.4-2.7-3.8 28.6-1.8v2.7l3.8 8 2.8 32.6-1 3 2 4.8-3.6 9-1 1 .2 4.2-1.2 2 1 2.5-4.2 1.6.9 3.2-1 1.3-5.7-1.6Z"
            id="Illinois" class="adm ssc-1-4" />
        <path
            d="m555 104.8-8 1.7-2.3-10.5-2.1-1 .3-2-1.8-3.6.5-3.3-1.9-4.5-.8-5.3 17.4-4.5-.3 4 1.4 1.8-1.8 3.7-2 1.1.8 3.1-1.5 7.7 1.3 7.8-.6 2.4Z"
            id="Vermont" class="adm ssc-1-4" />
        <path
            d="m173.3 98.1-1.9-3.4-1.8-.3-.7 2-5.7-.6-2.9.6-3-1.4-1.6 1.8-1.3-1.6-.3-3.9-3-2.5.5-2.6-2.2-5.3.2-2.7-1.5-1.7-4 2.7-1.7-2.1.4-2.6 2-1.1.2-5.4 2.5-4.8-2.8-.5-4.9-9.6-3.4-3.3 1-3.3-2.2-4.5 3-13.6 40.4 7.7 34.1 4 34 4.5-3.4 41.7-1.3 13-18.1-1.7-30.7-3.9-18.8-2.7Z"
            id="Montana" class="adm ssc-1-1" />
        <path
            d="m322.8 163.8-1.3-2 .8-2.2-1.1-4.3-.1-3.7-1.6-1 .2-3.7-2-3.4-1.8-6.2-2-3.4 2.1-5.2-1.3-1.8 1.2-3.6 52-1.2 1.8 3.3-1 1.8 1.5 5.4 3.4 1.2.9 1.7 2.7 3.8 2.4 1.4v4.3l-1.3 3.1-3.1 2-4 .9-.6 2.4 1.8 1.9-1.5 6-2.3 1-.5 3.2-3.4-3.1-28.6 1.5Z"
            id="Iowa" class="adm ssc-1-5" />
        <path
            d="m464.3 231.7 7.6-4 15-1.4 3.3 2.5.1 1.6 12.5-1.9 14.8 10.7-3.1 2.8-2 3.6-.4 4.3-3.5 2.6-4.3 6.8-4.8 3.7-4.3 5.8-2.6-1-1.7-4.4-2.7-1.7-1.8-5.2-5.8-4.1V251l-4.3-3.5-3.8-2.1-4.9-6.9-5.3-2.1Z"
            id="South Carolina" class="adm ssc-1-1" />
        <path
            d="m570.4 98.7-2 .7-2 2.9-11.4 2.5-1.4-1.4.6-2.4-1.3-7.8 1.5-7.7-.8-3.1 2-1 1.8-3.8-1.4-1.9.3-3.9.3-3.2 2.5-1.7 2.9 8.5 5.3 17.4 3.3 3Z"
            id="New Hampshire" class="adm ssc-1-5" />
        <path
            d="m178.6 204-10.9 78-23.5-3.6-12.6-7.3-27.4-16.2 1.7-2.9h2.3l1-3.6-1.9-.6.4-5 2.7-1.7.9-5.1 1.8-2.2 3.5-1.5-1.8-3-1.7-8.2 1-1.7-.2-5 .8-8.3h4.3l1 2 2.7-2 2-11Z"
            id="Arizona" class="adm ssc-1-1" />
        <path
            d="m534.8 151.4 5-5.8.3-1.3-5.4-4-.6-5.7 3.2-6 9.1 3-.3 3.5-1.6 4.6 3 .2.3 10-2 2.8.6 2.3-2 1.3-.8 4.6-1.7 1.2.2-3.2h-3l-4.6-2.6-.7-2.3Zm11.5 3.3"
            id="New Jersey" class="adm ssc-1-4" />
        <path
            d="m540.5 175.6-2.7 1.2-3.7-2.3 1.1-.8-4.9-.9-1-3.3 2.4-.4-3.4-1.3 1-5.2-1.5-.4 2-3.5-.1-3-3.7 6 1 2.6-1.1 2.4 1.3 4.7 1.5 1.4 1.4 4.5-3-1.7-3.7-.3-1.3-2-1.8 1.6V171l.6-2.3-1.3-1.8-4.8-2 .5-1.3-3-.7-2.2-3-3.4-1.3-2.6 3-3.5-.8-1.4 2.8-1.4-.2-3.5 4.4-1.2-7 38-7.5 4.8 17 6.3-1.3Z"
            id="Maryland" class="adm ssc-1-4" />
        <path
            d="m570.6 95.8-3.3-3-5.3-17.4L559 67l2.2.4.2-2.9 3-7-1.2-4.3 1.3-3.6-.5-3.8 4.2-12.1h1.8l2 2.8 5.5-4 5.1 2.5 4.6 14.7.9 3.6 3.8.2.9 4.3 1.7 1.5 1.6-1 1.7 2-.7 1.7 2.2.5-1.7 2.9-1.6-.3-1 2.6-2.8.6-1.2 3.5-1.5-2-3.3 2.5.7 2h-3v-2.9l-1.8 1.8.6 4.8-.9 2.2-2-.3-.5 2.4-3.5.9-2.7 1.9.7 2.8-1.5.9ZM588 71.3"
            id="Maine" class="adm ssc-1-4" />
        <path
            d="m203.3 360 3-4-.1-3.4 8.2 4 1.5 3.3 3.7 2.8-2.1 2.5-3.8 1-5 4.9-3-1.5-.1-4.3Zm-8.3-16.2 6-.3 3 1.9-.6 2-4.2 1-1.1-2.8Zm-4.7.2 3.3 1-2 1.2Zm-3.2-2.9.9-1.5 6.7 1.2-2 1.2Zm-12.5-6.4 4-1.8 4 5.6h-6Zm-19.5-6.4 2.7-2.6 3.1.2.1 3.4-1.5 1.3Zm-6 2.6"
            id="Hawaii" class="adm ssc-1-4" />
        <path d="m531.2 153.3 3.5-2-1.4 3.3 3.2 4.1.6 2.7 5 5.4.1 2.2-6.3 1.3Z" id="Delaware"
            class="adm ssc-1-4" />
        <path d="m571 115.7 1.4 2.2zm-7-2.9 4-1.2 2.6 3.7-1.6.2.3 5-3.4 1.3Z" id="Rhode Island"
            class="adm ssc-1-4" />
        <path
            d="m471.8 195-3.6 4.3-3.7 2.6-1.3 3.5-2.5 2.4-5.6 2.7v.3l-19.7 1.9-12 .7-13.8 1.6-2.5-.5.4 2.5-14.9 1.2 2-1.2.6-5.8 1-3.2 5.6 1.6 1-1.3-.9-3.2 4.2-1.6-1-2.6 1.2-2 6.7-2.5 3 1.9 3.3-3.2 2.3 1.5 2.4-3.9 1.9 1.5 2.7-.5v-2.1l4.6-6-.5-2.2 2.8.2 3.7-1.9-.6-4.3 3.7-.6 3.2 4 3.8.2 2.3 1.5 1.4-1.2 2.6 1.1 4-2.8.7 2.2 3 2 .1 4 4.9 6Zm-80.5 23.3h.6z"
            id="Kentucky" class="adm ssc-1-1" />
        <path
            d="m480.3 150-1.4 1.1 1.3 3.4-1 3.6-.4 6.5-3 3.8h-2.5l-2 2.2-1.4 5.9-1.9-1.9-1.4 3.5.7 2.7-1.2 2.2-2.8.8-3-2-.8-2.2-4 2.8-2.5-1.1-1.4 1.2-2.3-1.5-3.8-.2-3.2-4-3.7.6-4-35.8 13.6-2.2 5.3 2.2 1.2-1 4 2.3 4.5-2.6h2.7l4.1-4.5 7.2-4.2Z"
            id="Ohio" class="adm ssc-1-0" />
        <path
            d="m373.4 79.4 3 3 10 2 3.1 1.5 6.2.6.7 2 3.1 1.4-.6 4.3 2.3.1-.6 2.3 1.4 1-2 2.2-1.6 5.6 2.5-1.4 1.3-2.8 1.7-.8 1.5-4 2.1-2-.2 2.8-3.5 8.4v4.6l-1.7 4.3.6 2.6-1.6 6.2 2.1 6.4v4l-28.7 1.8-1-1.7-3.3-1.2-1.6-5.4 1.1-1.8-1.7-3.3-.5-3.8-2-3-4.5-2.6-.6-1.8-5.9-3-3-2.4.3-7.5 1-2.1-2.3-1.8 1.5-4.4L356 87l-.3-8.2 2.6-.6h2.1l6.5-2.6 2.1-1.5 1.1 1-1.3 4.3 2-1.3Z"
            id="Wisconsin" class="adm ssc-1-4" />
        <path
            d="m121.4 66.9 3.1 6-5.4 7.2-1.6 3-3.7 3.5-.5 2.6 2.8 2.4-2.4 4.5-5.5 24.5-29.4-7-23.3-6.6-18-5.1-.9-2 1.7-7.4-.7-2.8 1.9-2.2 5.8-9.5 4.4-10.6.5-2.2 3.6-7.5 2.8-10.9 1 1 4.2.2 2.7 1.5 2 3.8-.7 4.1 4.3 2.8 4.7-1 2.6.5 2.8 2.5 5.6-.5 4 1.3 7-.8h5.3Z"
            id="Oregon" class="adm ssc-1-4" />
        <path
            d="M315 89.7 279 87.8l-35.8-1.5 3.5-41.7L278 46l31.1 1.6.8 3.6-.1 8 2.6 7.4.4 13.2 1.9 4.4Z"
            id="North Dakota" class="adm ssc-1-1" />
        <path
            d="m384 239.7-1.8 2-.5 6-2.1 1-3.5 5.6 1.2 2.8-2.5 3 1.2 1.8v6l-33.1 1-.2-7.5-4 .2-1-1.3.2-24.4-2.3-15.4 49-1.8 1 2.7-3.1 4.4 7.1-.5.5 2.5-2.7 1.3 1.2 1.4-3.4 3.7 1.5 3.4Z"
            id="Arkansas" class="adm ssc-1-1" />
        <path
            d="m414 143 20.4-2.3.1 1 4.1 35.7.6 4.3-3.7 2-2.8-.3.5 2.2-4.6 6v2.1l-2.7.5-2-1.5-2.3 3.9-2.3-1.5-3.3 3.2-3-1.9-6.7 2.6-.2-4.2 1-1 3.7-9-2.2-4.7 1.1-3-2.8-32.8 1.7 1Z"
            id="Indiana" class="adm ssc-1-1" />
        <path
            d="m315.9 123.3.1-24.9-3.9-4.2 2.9-4.5-.3-5.5-1.9-4.4-.4-13.2-2.6-7.3v-8.1l-.7-3.6h19v-5.2l3 1.2 2.3 7.8 6.9 1.1.4 1.6 5.4-2 6.6 2.5 1.3 3 .7-1.6 5.4 1.7 1.5 2 3-.6 3.2-2.4 1.2 2 5.8-.6 2.6 1.6 2.3-.3-3.1 2.5-5.2 2-3 2.2-7 7.8-4 3.3.8 1-2.6.7.3 8.2-3.9 2.6-1.5 4.4 2.3 1.8-1 2.1-.2 7.5 2.9 2.3 6 3.1.5 1.8 4.4 2.6 2.1 3 .5 3.8Z"
            id="Minnesota" class="adm ssc-1-4" />
        <path d="m547.1 116.5 16.8-3.7 2 9-5.2 2.6-4.9 1.5-6.9 5.3-1-1.4 2-2-1-1Z" id="Connecticut"
            class="adm ssc-1-4" />
    </g>
    <rect x="0" y="0" id="frame" width="650" height="380" rx="0" fill="none" stroke="#b8b8b8ff"
        stroke-width="0" />
    <g id="svg-map-legend">
        <g id="United States of America ADM1-legend-group" transform="translate(509 243)">
            <g>
                <path fill="#a9c0deff" stroke="#000" pathLength="1" d="M103 0h20v15h-20z" />
                <text class="text" text-anchor="start" dominant-baseline="middle" x="6.433" y="7.5"
                    style="font-size:13px;stroke:rgba(255,255,255,.506);stroke-width:0;font-weight:346">Light
                    Democrat</text>
            </g>
            <g transform="translate(0 20)">
                <path fill="#306596ff" stroke="#000" pathLength="1" d="M103 0h20v15h-20z" />
                <text class="text" text-anchor="start" dominant-baseline="middle" x="38.7" y="7.5"
                    style="font-size:13px;stroke:rgba(255,255,255,.506);stroke-width:0;font-weight:346">
                    Democrat</text>
            </g>
            <g transform="translate(0 40)">
                <path fill="#667fafff" stroke="#000" pathLength="1" d="M103 0h20v15h-20z" />
                <text class="text" text-anchor="start" dominant-baseline="middle" x=".467" y="7.5"
                    style="font-size:13px;stroke:rgba(255,255,255,.506);stroke-width:0;font-weight:346">Heavy
                    Democrat</text>
            </g>
            <g transform="translate(0 60)">
                <path fill="#eaa9a8ff" stroke="#000" pathLength="1" d="M103 0h20v15h-20z" />
                <text class="text" text-anchor="start" dominant-baseline="middle" x="0" y="7.5"
                    style="font-size:13px;stroke:rgba(255,255,255,.506);stroke-width:0;font-weight:346">Light
                    Republican</text>
            </g>
            <g transform="translate(0 80)">
                <path fill="#cc4731ff" stroke="#000" pathLength="1" d="M103 0h20v15h-20z" />
                <text class="text" text-anchor="start" dominant-baseline="middle" x="32.25" y="7.5"
                    style="font-size:13px;stroke:rgba(255,255,255,.506);stroke-width:0;font-weight:346">
                    Republican</text>
            </g>
            <g transform="translate(0 100)">
                <path fill="#eddc4eff" stroke="#000" pathLength="1" d="M103 0h20v15h-20z" />
                <text class="text" text-anchor="start" dominant-baseline="middle" x="33.967" y="7.5"
                    style="font-size:13px;stroke:rgba(255,255,255,.506);stroke-width:0;font-weight:346">
                    Undecided</text>
            </g>
        </g>
    </g>
    <style>#ftcb-,#ftcb-  #canvas { display: block; height: auto; contain: content; }#ftcb- text { font-family: system-ui, -apple-system, BlinkMacSystemFont, "Segoe UI", Roboto, Oxygen, Ubuntu, Cantarell, "Open Sans", "Helvetica Neue", sans-serif; }#ftcb- #paths &gt; path { stroke: rgba(124, 73, 14, 0.627); stroke-dasharray: 5px; stroke-width: 2px; fill: none; }#ftcb- #outline { pointer-events: none; }#ftcb- #graticule { pointer-events: none; fill: none; stroke: #777777; stroke-width: 0.5px; stroke-opacity: 0.5; }#ftcb- .country { stroke-width: 4px; fill: #f3efec; stroke-linejoin: round; }#ftcb- .country:hover { fill: #f9f2eb; }#ftcb- .country.hovered { fill: #f9f2eb; }#ftcb- .adm { stroke: #c4b8a3; stroke-width: 1px; fill: rgba(255, 255, 255, 0.816); stroke-linejoin: round; }#ftcb- .adm:hover { stroke: #fdfdfb; fill: #ecd6b6; stroke-width: 2px; }#ftcb- .adm.hovered { stroke: #fdfdfb; fill: #ecd6b6; stroke-width: 2px; }#ftcb- #tooltip { position: absolute; }#ftcb- path.ssc-1-0{fill:#eddc4eff;}#ftcb- path.ssc-1-0.hovered{fill:#ffec54;}#ftcb- path.ssc-1-1{fill:#cc4731ff;}#ftcb- path.ssc-1-1.hovered{fill:#db4c35;}#ftcb- path.ssc-1-2{fill:#eaa9a8ff;}#ftcb- path.ssc-1-2.hovered{fill:#fbb5b4;}#ftcb- path.ssc-1-3{fill:#667fafff;}#ftcb- path.ssc-1-3.hovered{fill:#6e88bc;}#ftcb- path.ssc-1-4{fill:#306596ff;}#ftcb- path.ssc-1-4.hovered{fill:#346ca1;}#ftcb- path.ssc-1-5{fill:#a9c0deff;}#ftcb- path.ssc-1-5.hovered{fill:#b5ceee;}#ftcb- #points-labels {pointer-events:none}#ftcb-  #points-labels a,#ftcb-  #points-labels a * {pointer-events:auto}
#ftcb-.mapanimate-transition path, #ftcb-.mapanimate-transition #graticule, #ftcb-.mapanimate-transition #outline, #ftcb-.mapanimate-transition image, #ftcb-.mapanimate-transition text, #ftcb-.mapanimate-transition #points-labels, #ftcb-.mapanimate-transition #svg-map-legend *, #ftcb-.mapanimate-transition #path-images {
    transition-property: fill-opacity, opacity;
    transition-duration: 1s;
    transition-timing-function: ease;
}
#ftcb-.mapanimate-transition #graticule, #ftcb-.mapanimate-transition #outline {
    transition-delay: 0.5s;
}
#ftcb-.mapanimate path, #ftcb-.mapanimate rect, #ftcb-.mapanimate circle {
    stroke-dasharray: 1 !important;
    fill-opacity: 0 !important;
    stroke-dashoffset: 1;
}
#ftcb-.mapanimate text, #ftcb-.mapanimate image, #ftcb-.mapanimate #points-labels, #ftcb-.mapanimate #path-images, #ftcb-.mapanimate #graticule, #ftcb-.mapanimate #attribution {
    opacity: 0 !important;
}
#ftcb-.mapanimate #frame{
    animation: dash 3s ease 0s forwards;
}
#ftcb-.mapanimate #land path, #ftcb-.mapanimate #paths path, #ftcb-.mapanimate .country-img path {
    animation: dash 3s ease 0.5s forwards;
}
#ftcb-.mapanimate .country, #ftcb-.mapanimate .adm, #ftcb-.mapanimate #svg-map-legend * {
    animation: dash 3s ease 1s forwards;
}
#ftcb-.mapanimate.no-frame #land path, #ftcb-.mapanimate.no-frame #paths path, #ftcb-.mapanimate.no-frame .country-img path {
    animation: dash 3s ease 0s forwards;
}
#ftcb-.mapanimate.no-frame .country, #ftcb-.mapanimate.no-frame .adm, #ftcb-.mapanimate.no-frame #svg-map-legend * {
    animation: dash 3s ease 0.5s forwards;
}

@keyframes dash {
    from {
      stroke-opacity: 1;
      stroke-dashoffset: 1;
    }
    to {
      stroke-opacity: 1;
      stroke-dashoffset: 0;
    }
}
</style>
    <script>(function(){const e=document.currentScript.parentNode;function t(data){return data.indexOf("http://www.w3.org/2000/svg")&lt;0&amp;&amp;(data=data.replace(/&lt;svg/g,"&lt;svg xmlns='http://www.w3.org/2000/svg'")),`data:image/svg+xml,${data=(data=(data=(data=data.replace(/"/g,"'")).replace(/&gt;\s{1,}&lt;/g,"&gt;&lt;")).replace(/\s{2,}/g," ")).replace(/[\r\n%#()&lt;&gt;?[\\\]^`{|}]/g,encodeURIComponent)}`}function n(e){const n=document.createElementNS("http://www.w3.org/2000/svg","svg");n.setAttribute("xmlns","http://www.w3.org/2000/svg"),n.setAttribute("preserveAspectRatio","none"),n.innerHTML=e.innerHTML;const o=document.createElementNS("http://www.w3.org/2000/svg","image");n.querySelectorAll("path[pathLength]").forEach(e=&gt;{e.removeAttribute("pathLength")}),[...e.attributes].forEach(e=&gt;{if(e.nodeName.includes("image-")){const t=e.nodeName.slice(6);o.setAttribute(t,e.nodeValue)}else n.setAttribute(e.nodeName,e.nodeValue)});const s=t(n.outerHTML);return o.setAttribute("href",s),o}function o(e,t){Array.from(e.querySelectorAll(".contour-to-dup")).forEach(e=&gt;{if(!e.hasAttribute("filter-name"))return;const n=e.cloneNode();n.setAttribute("href",e.getAttribute("href").replace("fill='none'","")),n.setAttribute("filter","url(#"+e.getAttribute("filter-name")+")"),n.style.willChange="transform",t&amp;&amp;(n.style.opacity=0,setTimeout(()=&gt;{n.style.opacity=1},0)),e.parentNode.insertBefore(n,e)})}function s(t){e.querySelectorAll("g[image-class]").forEach(e=&gt;{const o=n(e);e.parentNode.append(o),t?setTimeout(()=&gt;{e.remove()},500):e.remove()}),o(e,t)}const a=new DOMParser,i=650,r=380,l={data:{"United States of America ADM1":{Mississippi:{votes:"32"},"North Carolina":{votes:"32"},Oklahoma:{votes:"32"},Virginia:{votes:"32"},"West Virginia":{votes:"32"},Louisiana:{votes:"32"},Michigan:{votes:"32"},Massachusetts:{votes:"32"},Idaho:{votes:"32"},Florida:{votes:"29"},Nebraska:{votes:"32"},Washington:{votes:"32"},"New Mexico":{votes:"32"},"South Dakota":{votes:"32"},Texas:{votes:"32"},California:{votes:"32"},Alabama:{votes:"32"},Georgia:{votes:"32"},Pennsylvania:{votes:"32"},Missouri:{votes:"13"},Colorado:{votes:"5"},Utah:{votes:"32"},Tennessee:{votes:"32"},Wyoming:{votes:"32"},"New York":{votes:"32"},Kansas:{votes:"32"},Alaska:{votes:"32"},Nevada:{votes:"32"},Illinois:{votes:"32"},Vermont:{votes:"32"},Montana:{votes:"32"},Iowa:{votes:"11"},"South Carolina":{votes:"32"},"New Hampshire":{votes:"32"},Arizona:{votes:"5"},"New Jersey":{votes:"32"},Maryland:{votes:"32"},Maine:{votes:"32"},Hawaii:{votes:"32"},Delaware:{votes:"32"},"Rhode Island":{votes:"32"},Kentucky:{votes:"32"},Ohio:{votes:"32"},Wisconsin:{votes:"32"},Oregon:{votes:"32"},"North Dakota":{votes:"32"},Arkansas:{votes:"32"},Indiana:{votes:"11"},Minnesota:{votes:"32"},Connecticut:{votes:"32"}}},tooltips:{"United States of America ADM1":'&lt;div style="font-size: 14px; padding: 5px; background-color: rgb(255, 255, 255); border: 1px solid rgb(168, 168, 168); border-radius: 7px; will-change: opacity; z-index: 1000; width: max-content; max-width: 15rem; line-height: 1.42"&gt;&lt;div&gt;\n    &lt;span style="display: block; text-align:center;"&gt; &lt;/span&gt;&lt;strong&gt; ${shapeId} &lt;/strong&gt;&lt;span style="display: block; text-align:center;"&gt; &lt;/span&gt;\n    Electoral votes: ${data.votes}\n&lt;/div&gt;&lt;div&gt;\n    &lt;/div&gt;&lt;/div&gt;'}},c=new Set([]),d={shapeId:null,element:null};function u(e,t,shapeId){if(!e)return;const n=Object.keys(e);if(n.length&gt;0&amp;&amp;n.every(t=&gt;!e[t]&amp;&amp;!1!==e[t]))return;const data={};for(const t in e)data[t]=e[t]||!1===e[t]||0===e[t]?e[t]:"N/A";const o=document.createElementNS("http://www.w3.org/2000/svg","foreignObject");o.setAttribute("width",1),o.setAttribute("height",1),o.style.overflow="visible";const s=a.parseFromString(eval("`"+t+"`"),"text/html").querySelector("body"),i=document.createElementNS("http://www.w3.org/1999/xhtml","div");return i.classList.add("body"),i.append(s.firstChild),o.appendChild(i),o}function v(){d.element.style.display="none",d.element.style.opacity=0,d.shapeId=null}function m(t){for(var n=t.target.parentNode;n&amp;&amp;!n.hasAttribute?.("id");)n=n.parentNode;if(!n)return v();var o=n.getAttribute("id");if(!(o in l.data))return v();var s=t.target;s.getAttribute?.("id")||"a"!==s.tagName?.toLowerCase()||(s=s.querySelector("[id]")??s);var shapeId=s.getAttribute?.("id")??null;if(!shapeId||c.has(shapeId))return v();var a=e.getScreenCTM(),m=a?a.a:1,h=a?a.d:1,p=1/m,g=1/h,f=a?a.e:0,y=a?a.f:0,w=f+i*m,b=y+r*h,A=t.clientX-f+10,N=t.clientY-y+10;if(d.shapeId===shapeId){if(d.measuring)return;var L=d.element.firstChild?.firstChild?.getBoundingClientRect?.();L&amp;&amp;L.width&gt;0&amp;&amp;(w-L.width&lt;t.clientX+10&amp;&amp;(A-=L.width+20),b-L.height&lt;t.clientY+10&amp;&amp;(N-=L.height+20)),d.element.setAttribute("x",A),d.element.setAttribute("y",N),d.element.setAttribute("transform","scale("+p+","+g+")"),d.element.style.display="block",d.element.style.opacity=1}else{var data=l.data[o][shapeId];if(!data)return v();var x=u(data,l.tooltips[o],shapeId);if(!x)return v();d.element.replaceWith(x),d.element=x,d.shapeId=shapeId,d.element.setAttribute("x",A),d.element.setAttribute("y",N),d.element.setAttribute("transform","scale("+p+","+g+")"),d.element.style.display="block",d.element.style.opacity=0,d.measuring=!0,requestAnimationFrame(function(){d.measuring=!1;var e=d.element.firstChild?.firstChild?.getBoundingClientRect?.();e&amp;&amp;e.width&gt;0&amp;&amp;(w-e.width&lt;t.clientX+10&amp;&amp;(A-=e.width+20),b-e.height&lt;t.clientY+10&amp;&amp;(N-=e.height+20),d.element.setAttribute("x",A),d.element.setAttribute("y",N)),d.element.style.opacity=1})}}d.element=u({},"",""),e.append(d.element),d.element.style.display="none";let h=null,p=null,g=null;function f(){if(!h)return;h.classList.remove("hovered");const e=p?.parentNode;null!==g&amp;&amp;e&amp;&amp;e.insertBefore(p,e.children[g]),h=null,p=null,g=null}e.addEventListener("mouseleave",()=&gt;{"function"==typeof v&amp;&amp;v(),f()}),e.addEventListener("mousemove",e=&gt;{"function"==typeof m&amp;&amp;m(e);const t=e.target;let n,o;"path"===t.tagName?(n=t,o="a"===t.parentNode?.tagName?.toLowerCase()?t.parentNode:t):"a"===t.tagName?.toLowerCase()&amp;&amp;(n=t.querySelector("path"),o=t);const s=o?.parentNode;n&amp;&amp;"g"===s?.tagName?h!==n&amp;&amp;(f(),g=Array.from(s.children).indexOf(o),s.append(o),n.classList.add("hovered"),h=n,p=o):f()});const y={root:null,rootMargin:"0px",threshold:.3};e.style.visibility="hidden";let w=!1;function b(t){!w&amp;&amp;t[0].isIntersecting&amp;&amp;(w=!0,setTimeout(()=&gt;{e.style.visibility="visible";const t=e.querySelector("#frame");t&amp;&amp;parseFloat(t.getAttribute("stroke-width")||"0")&gt;0||e.classList.add("no-frame"),e.classList.add("mapanimate"),e.querySelectorAll("path, #frame").forEach(e=&gt;{e.setAttribute("pathLength",1)}),setTimeout(()=&gt;{e.classList.add("mapanimate-transition")},1e3),t.addEventListener("animationend",()=&gt;{e.classList.remove("mapanimate"),s(!0),e.querySelectorAll("path[pathLength]").forEach(e=&gt;{e.removeAttribute("pathLength")}),setTimeout(()=&gt;{e.classList.remove("mapanimate-transition")},1e3)})},500))}const A=new IntersectionObserver(b,y);A.observe(e)})();</script>
</svg>