<?xml version="1.0" standalone="no"?>
<!DOCTYPE svg PUBLIC "-//W3C//DTD SVG 20010904//EN"
 "http://www.w3.org/TR/2001/REC-SVG-20010904/DTD/svg10.dtd">
<svg version="1.0" xmlns="http://www.w3.org/2000/svg"
 width="1254.000000pt" height="1254.000000pt" viewBox="0 0 1254.000000 1254.000000"
 preserveAspectRatio="xMidYMid meet">
<metadata>
Created by potrace 1.16, written by Peter Selinger 2001-2019
</metadata>
<g transform="translate(0.000000,1254.000000) scale(0.100000,-0.100000)"
fill="#000000" stroke="none">
<path d="M3760 9415 c-173 -56 -513 -167 -755 -245 -242 -78 -445 -148 -451
-154 -7 -7 -20 -124 -33 -301 -12 -159 -26 -344 -32 -410 -5 -66 -25 -322 -44
-570 -19 -247 -51 -646 -70 -885 -19 -239 -41 -523 -50 -630 -8 -107 -22 -278
-30 -380 -8 -102 -31 -383 -50 -625 -19 -242 -40 -496 -45 -565 -34 -405 -70
-862 -70 -884 0 -15 6 -29 14 -32 8 -3 119 53 248 124 128 71 487 270 798 442
311 172 620 343 688 381 l123 68 192 -113 c106 -62 363 -214 572 -338 345
-204 570 -337 1145 -676 107 -63 227 -134 265 -157 39 -23 80 -48 92 -54 21
-10 42 0 205 102 445 277 1306 807 1821 1121 114 69 212 126 218 126 9 0 508
-254 840 -427 l87 -45 6 -72 c8 -93 36 -560 36 -608 0 -62 -55 -71 730 109
135 30 248 61 253 67 4 6 5 34 2 61 -6 56 -89 937 -135 1440 -34 368 -48 520
-85 900 -14 143 -31 332 -40 420 -8 88 -43 471 -79 850 -36 380 -84 888 -106
1130 -22 241 -43 442 -48 446 -8 9 -420 147 -1040 349 -373 121 -435 139 -451
128 -10 -7 -220 -202 -467 -434 -247 -231 -582 -544 -744 -695 -163 -151 -450
-417 -639 -593 l-343 -318 -42 39 c-22 22 -104 97 -181 168 -279 257 -1110
1036 -1668 1563 -165 155 -305 282 -311 281 -6 0 -153 -47 -326 -104z m294
-237 l-6 -273 -104 -197 c-57 -108 -115 -225 -128 -260 -101 -268 -65 -539
123 -923 l78 -160 -8 -395 c-4 -217 -8 -470 -8 -562 l-1 -168 -54 0 c-62 0
-151 16 -396 70 -239 54 -358 70 -504 70 -207 0 -379 -40 -566 -132 -52 -25
-96 -45 -98 -43 -4 3 26 367 31 371 5 5 290 64 367 76 56 8 199 13 425 13 310
0 345 2 400 20 115 37 195 147 195 266 0 180 -131 452 -288 601 -213 201 -440
211 -712 30 -82 -55 -228 -189 -304 -282 l-37 -45 5 50 c4 28 18 194 31 370
14 176 27 325 30 331 7 22 285 161 470 234 279 111 453 233 553 389 65 100
101 202 142 398 39 183 81 303 120 338 17 15 210 84 237 85 10 0 12 -58 7
-272z m147 169 c13 -18 -30 -187 -72 -281 -11 -26 -22 -46 -23 -44 -1 2 -1 95
2 206 l4 204 41 -39 c23 -21 44 -42 48 -46z m4275 -244 c-3 -7 -16 -13 -29
-13 -48 0 -165 -70 -241 -143 -96 -94 -164 -200 -275 -431 -111 -231 -191
-353 -306 -469 -120 -120 -246 -201 -553 -356 -368 -186 -468 -256 -661 -463
-49 -53 -91 -95 -93 -93 -2 2 -2 68 0 148 l3 145 125 114 c143 129 189 159
479 311 261 136 281 148 380 216 202 139 359 354 517 707 30 66 49 92 105 144
37 35 176 165 308 289 l240 226 3 -160 c1 -87 0 -165 -2 -172z m237 291 c61
-19 122 -41 136 -49 52 -27 111 -87 199 -202 109 -144 183 -215 259 -251 52
-24 70 -27 163 -27 121 0 190 18 353 91 55 25 100 44 102 42 7 -8 23 -214 17
-219 -15 -13 -302 -129 -382 -154 -124 -40 -291 -46 -373 -15 -71 27 -143 83
-215 170 -181 217 -252 275 -372 306 l-70 18 0 163 0 163 37 0 c20 0 86 -16
146 -36z m-4956 -81 c-35 -70 -53 -130 -87 -293 -54 -264 -100 -361 -235 -495
-112 -112 -192 -160 -446 -269 -107 -46 -254 -113 -326 -150 -73 -36 -134 -66
-135 -66 -2 0 2 63 7 141 l10 140 111 58 c157 82 246 143 347 240 138 133 221
274 288 492 l33 107 216 70 c118 39 221 71 228 71 8 1 5 -15 -11 -46z m5630
-138 c257 -85 474 -155 481 -155 51 0 -83 -69 -218 -111 -112 -36 -263 -34
-341 2 -75 35 -127 84 -218 204 -41 55 -100 126 -130 158 -30 31 -51 57 -48
57 3 0 216 -70 474 -155z m-5033 31 l120 -113 -36 -49 c-173 -240 -277 -425
-336 -599 -7 -21 -8 51 -5 240 l4 270 41 94 c22 52 50 134 62 183 11 48 23 88
26 87 3 0 59 -51 124 -113z m-1059 -18 c-46 -164 -108 -308 -175 -409 -60 -89
-189 -213 -290 -280 -91 -60 -269 -153 -277 -145 -3 2 0 60 5 128 8 96 14 125
27 133 81 49 146 97 198 144 68 63 141 151 132 160 -3 3 -18 -10 -33 -29 -60
-79 -132 -145 -216 -201 -48 -33 -90 -58 -93 -56 -2 3 1 64 7 137 l11 132 47
54 c46 55 47 55 197 103 82 27 151 47 153 46 2 -2 -6 -21 -17 -44 -12 -22 -21
-46 -21 -53 1 -21 37 33 49 72 10 35 12 36 148 82 76 25 142 47 146 47 5 1 6
-9 2 -21z m5185 -402 l0 -293 -55 -6 c-118 -12 -211 -91 -390 -332 -172 -230
-312 -363 -510 -485 -38 -24 -173 -97 -299 -162 -245 -126 -353 -194 -455
-282 -119 -103 -218 -237 -272 -369 -101 -243 -99 -474 6 -846 19 -69 35 -129
35 -134 0 -13 -69 79 -113 152 -21 35 -55 100 -75 145 l-37 81 0 410 c0 226 1
418 3 427 2 9 72 86 156 171 183 186 249 232 569 393 125 63 267 138 315 166
275 162 416 327 592 693 131 273 222 400 345 485 49 33 148 79 173 80 9 0 12
-65 12 -294z m185 260 c76 -35 142 -95 254 -230 161 -193 231 -237 392 -244
76 -3 114 0 185 18 83 21 254 84 388 144 33 14 60 25 62 23 8 -7 23 -222 16
-228 -7 -6 -202 -97 -463 -215 -64 -28 -161 -67 -215 -85 -90 -30 -110 -33
-224 -34 -122 0 -127 1 -190 32 -37 18 -102 66 -150 109 -47 42 -109 92 -137
111 l-53 34 0 301 0 301 43 -7 c23 -4 65 -17 92 -30z m-4090 -49 l78 -73 -77
-81 c-303 -314 -427 -689 -351 -1053 34 -162 91 -296 186 -436 68 -101 157
-194 317 -332 212 -182 297 -278 353 -400 115 -247 60 -507 -158 -759 -96
-110 -217 -189 -363 -235 -64 -19 -96 -23 -215 -23 -77 0 -167 6 -200 13 -33
7 -70 15 -82 18 -22 4 -23 9 -23 98 0 51 3 106 6 122 l5 29 157 0 c143 1 164
3 232 27 112 39 167 74 245 152 167 169 201 390 94 612 -39 82 -120 190 -254
339 -259 287 -383 503 -430 749 -13 67 -15 126 -10 331 7 273 14 309 87 479
63 146 287 496 317 496 4 0 43 -33 86 -73z m-1951 -32 c-19 -29 -34 -32 -34
-7 0 24 8 32 32 32 17 0 18 -1 2 -25z m2166 -170 l35 -37 -29 -22 c-188 -138
-314 -310 -361 -491 -22 -86 -20 -244 5 -341 38 -149 134 -322 252 -452 100
-110 207 -188 456 -332 41 -23 112 -71 159 -106 89 -67 109 -78 77 -43 -35 40
-157 124 -304 211 -80 47 -181 113 -225 145 -276 205 -454 562 -416 836 23
164 87 292 213 423 44 45 103 99 133 119 l54 38 38 -31 c47 -37 118 -110 112
-115 -2 -2 -35 -23 -74 -48 -158 -100 -266 -251 -301 -419 -48 -232 77 -512
311 -695 94 -73 167 -119 327 -203 227 -119 343 -209 437 -336 35 -48 66 -84
69 -81 11 11 -93 148 -155 204 -91 84 -186 147 -363 241 -199 106 -279 158
-364 240 -158 150 -256 351 -256 525 0 82 26 180 71 265 49 95 160 207 258
258 l61 33 38 -29 c20 -17 56 -50 79 -74 l42 -43 -65 -34 c-75 -39 -178 -135
-217 -203 -40 -68 -61 -160 -53 -230 26 -225 189 -398 514 -543 388 -173 553
-294 675 -493 50 -81 78 -115 63 -76 -20 53 -99 167 -160 231 -122 130 -233
200 -513 328 -329 150 -468 264 -532 439 -62 168 -23 318 118 448 66 62 174
123 195 111 22 -13 210 -193 205 -196 -2 -2 -21 -13 -41 -26 -81 -48 -137
-141 -138 -227 0 -80 25 -138 92 -210 86 -91 211 -166 468 -277 200 -87 320
-106 422 -67 29 11 54 20 56 20 7 0 0 -498 -7 -506 -20 -19 -42 -132 -47 -239
-5 -101 -3 -120 25 -228 28 -107 31 -133 31 -265 l-1 -147 -127 130 c-150 152
-189 213 -271 417 -62 155 -80 192 -87 185 -9 -8 124 -324 165 -395 46 -77 90
-129 224 -264 l97 -97 0 -789 0 -789 -54 -109 c-60 -123 -143 -252 -236 -368
-66 -83 -169 -199 -181 -204 -10 -4 -166 86 -175 100 -4 5 25 42 64 82 196
200 357 479 422 731 80 311 54 608 -75 873 -43 88 -69 126 -118 175 -91 93
-137 112 -267 112 -96 0 -111 -3 -179 -33 -138 -60 -245 -153 -320 -276 -18
-30 -50 -105 -72 -165 -45 -129 -70 -181 -111 -234 -87 -109 -243 -159 -431
-136 -98 12 -284 60 -411 106 l-80 29 3 115 c1 63 4 115 6 117 2 2 50 -8 107
-22 389 -96 596 -34 762 228 33 52 -1 22 -63 -56 -75 -95 -136 -142 -221 -168
-129 -41 -252 -37 -477 17 l-113 26 0 120 0 119 26 -6 c14 -4 69 -13 122 -21
282 -43 494 18 688 198 228 212 326 479 265 720 -46 179 -137 297 -402 523
-182 155 -236 213 -326 346 -76 115 -122 218 -156 355 -98 386 20 774 331
1095 l75 77 46 -38 c25 -22 62 -56 81 -76z m-751 -450 c-6 -280 -13 -604 -17
-720 l-8 -210 -67 135 c-165 331 -207 613 -128 850 18 52 72 169 120 260 48
91 91 174 95 184 3 10 8 17 10 15 2 -2 0 -233 -5 -514z m3722 343 c-108 -229
-205 -372 -337 -498 -106 -101 -205 -165 -484 -310 -129 -67 -245 -129 -258
-138 -48 -31 -26 -4 58 73 192 177 617 572 834 777 127 119 234 217 238 217 4
1 -19 -54 -51 -121z m2223 -310 l7 -86 -63 -28 c-35 -15 -212 -103 -395 -195
-477 -240 -562 -266 -818 -256 -77 4 -150 9 -162 13 l-23 6 0 309 c0 170 3
309 8 309 16 0 73 -42 162 -120 131 -114 210 -151 333 -157 153 -8 271 30 678
220 123 57 231 106 239 109 19 6 25 -15 34 -124z m-1506 -223 l2 -321 -87 -11
c-180 -25 -267 -67 -665 -319 -147 -93 -328 -207 -403 -254 -178 -111 -251
-166 -362 -273 -210 -203 -306 -421 -306 -697 0 -155 28 -277 103 -460 174
-421 209 -559 225 -870 20 -387 -82 -740 -326 -1130 -119 -190 -142 -216 -247
-282 l-92 -57 -1 87 c-1 48 0 94 1 102 1 8 26 47 56 87 144 192 296 468 353
640 71 214 97 472 72 693 -20 164 -80 388 -156 572 -74 180 -143 405 -177 573
-29 142 -31 345 -5 453 46 189 121 324 257 463 119 121 234 197 519 345 268
138 318 168 439 259 127 95 235 209 367 386 166 223 245 296 354 325 82 23 76
47 79 -311z m1516 98 c3 -10 8 -59 12 -110 l6 -92 -143 -71 c-187 -94 -240
-125 -504 -295 -121 -78 -249 -158 -285 -177 -153 -86 -327 -132 -472 -126
l-73 3 0 210 0 210 25 -2 c205 -16 299 -14 398 6 120 25 232 68 399 153 281
143 613 306 625 307 4 1 9 -7 12 -16z m-4484 -133 l89 -81 -25 -48 c-23 -43
-24 -53 -14 -90 6 -25 27 -58 49 -80 66 -66 225 -130 326 -131 37 -1 48 -9
170 -125 l130 -124 -30 -12 c-17 -8 -71 -13 -125 -13 -86 0 -104 3 -195 38
-183 69 -433 199 -510 263 -95 80 -139 161 -133 248 5 69 28 123 72 167 32 32
84 68 100 68 4 0 48 -36 96 -80z m4514 -177 c4 -49 10 -104 13 -124 l5 -36
-112 -62 c-205 -113 -355 -225 -510 -381 -294 -294 -411 -580 -396 -960 12
-318 95 -649 224 -895 44 -83 145 -236 263 -395 387 -522 527 -730 617 -912
62 -126 105 -229 98 -236 -3 -2 -132 63 -288 145 l-283 148 -48 135 c-54 153
-159 376 -234 496 -28 44 -109 162 -180 261 -210 291 -277 415 -388 713 -32
85 -73 185 -91 222 -39 77 -95 138 -127 138 -21 -1 -21 -1 -2 -12 71 -39 111
-109 204 -358 114 -302 190 -439 422 -760 130 -179 191 -279 273 -451 61 -127
154 -374 138 -367 -4 2 -85 43 -181 92 l-174 89 -24 56 c-82 187 -169 332
-306 511 -172 224 -286 342 -376 392 l-31 17 0 976 0 975 78 0 c227 0 381 60
712 275 271 176 372 237 540 322 80 40 148 73 151 73 3 0 9 -39 13 -87z
m-4169 -147 c88 -83 89 -85 59 -86 -38 0 -153 34 -207 62 -56 28 -114 85 -127
124 -12 36 -7 64 17 102 l14 23 77 -70 c42 -39 118 -109 167 -155z m2625 -196
l0 -210 -107 0 c-133 0 -205 -11 -325 -51 -165 -54 -466 -212 -687 -363 -316
-214 -481 -473 -481 -753 0 -152 25 -234 159 -529 117 -258 161 -481 161 -819
0 -290 -46 -537 -149 -792 -28 -72 -10 -67 22 5 105 235 154 535 144 882 -10
320 -48 482 -187 790 -108 239 -134 328 -132 460 2 265 139 497 412 699 154
114 461 288 636 361 156 65 230 82 392 87 l142 6 0 -977 0 -976 -47 0 c-67 -1
-126 -30 -192 -98 -132 -136 -201 -353 -201 -637 l0 -143 -140 -86 c-77 -47
-144 -86 -149 -86 -15 0 -35 201 -34 355 0 177 20 305 69 453 76 229 144 339
442 710 116 144 208 262 204 262 -5 0 -20 -12 -34 -27 -53 -57 -411 -510 -456
-578 -108 -163 -193 -376 -228 -570 -26 -152 -20 -494 12 -606 3 -13 -74 -64
-318 -215 -178 -109 -342 -210 -365 -226 -50 -33 -53 -34 -46 -8 8 30 -3 24
-25 -13 -13 -23 -60 -59 -148 -114 -208 -130 -266 -165 -263 -156 2 4 38 60
81 123 138 208 222 378 282 571 86 281 104 530 60 839 -27 189 -67 318 -183
598 -114 273 -146 439 -122 627 28 210 117 390 271 545 117 118 204 183 435
327 99 61 274 172 389 245 246 157 317 198 411 237 78 33 188 59 253 60 l42 1
0 -210z m1564 123 c8 -43 30 -323 25 -326 -189 -118 -372 -277 -475 -414 -113
-150 -197 -344 -230 -533 -26 -150 -15 -399 24 -550 73 -284 162 -436 488
-828 227 -272 368 -470 447 -629 33 -65 37 -83 52 -229 8 -88 20 -204 25 -258
6 -55 8 -101 5 -104 -7 -7 -129 54 -142 70 -5 7 -22 45 -38 83 -107 264 -214
435 -615 980 -200 272 -257 356 -323 470 -135 236 -228 584 -244 911 -10 210
22 391 97 559 101 225 350 495 626 677 95 63 247 148 264 148 5 0 11 -12 14
-27z m-5874 -241 c58 -121 151 -257 266 -390 282 -324 313 -369 358 -504 73
-217 -8 -450 -202 -582 -96 -66 -192 -97 -323 -103 -58 -3 -131 -3 -162 1
l-57 7 0 153 0 153 48 6 c90 11 163 45 223 106 134 136 129 334 -16 604 -56
104 -53 73 4 -44 109 -226 120 -395 32 -516 -54 -74 -168 -133 -258 -133 l-34
0 6 208 c3 114 8 350 11 525 6 313 7 318 24 289 51 -83 72 -113 76 -109 3 2
-18 43 -46 90 l-51 85 7 198 7 198 22 -77 c13 -43 41 -117 65 -165z m-849 179
c181 -72 380 -328 439 -565 49 -194 8 -315 -129 -380 l-66 -31 -340 -1 c-365
-1 -433 -7 -663 -55 -79 -17 -146 -29 -148 -26 -4 4 11 206 37 506 9 113 10
115 52 170 141 184 361 349 530 396 75 21 216 14 288 -14z m6783 -552 l6 -46
-90 -77 c-113 -96 -207 -214 -265 -331 -64 -130 -86 -217 -92 -366 -9 -213 35
-406 138 -612 83 -165 138 -243 367 -521 144 -175 135 -152 152 -351 6 -66 16
-177 23 -247 7 -71 12 -128 11 -128 -1 0 -19 30 -40 68 -88 158 -224 346 -434
597 -78 94 -170 208 -205 255 -133 177 -225 370 -273 575 -24 100 -26 128 -26
315 0 190 2 212 27 303 86 319 277 575 581 779 l91 61 12 -114 c6 -63 14 -135
17 -160z m10 -121 c3 -24 10 -98 17 -165 l11 -122 -36 -47 c-148 -194 -174
-458 -74 -744 40 -112 82 -194 160 -311 65 -97 65 -97 72 -185 3 -49 13 -154
20 -234 8 -80 14 -146 13 -147 -1 -1 -67 77 -147 173 -267 320 -376 512 -441
774 -19 80 -23 121 -24 260 0 143 3 176 23 245 31 106 89 225 150 305 47 63
226 240 242 240 4 0 10 -19 14 -42z m-3855 -330 c-1 -210 -2 -220 -16 -178
-21 67 -28 189 -14 277 15 90 22 123 27 123 2 0 4 -100 3 -222z m3900 -125 c7
-76 30 -327 52 -557 21 -231 38 -421 36 -422 -2 -2 -27 33 -57 79 -194 297
-252 635 -150 872 23 54 91 165 101 165 3 0 11 -62 18 -137z m-6867 -189 c51
-8 187 -35 302 -60 115 -25 252 -51 305 -58 l96 -12 -4 -145 c-2 -79 -5 -146
-8 -149 -2 -2 -124 26 -271 63 -370 93 -398 98 -562 104 -272 10 -480 -51
-719 -211 l-84 -56 8 93 c4 50 10 130 14 177 l6 85 115 57 c254 126 501 161
802 112z m3063 -214 c39 -89 76 -150 141 -231 100 -125 204 -388 261 -656 24
-114 27 -150 27 -333 1 -154 -3 -227 -16 -296 -19 -98 -68 -251 -114 -355 -62
-140 -213 -391 -303 -503 l-31 -39 -2 124 c-3 190 -3 190 56 293 100 173 168
347 208 534 20 94 23 133 22 332 0 206 -2 236 -27 355 -51 238 -125 429 -223
571 l-45 66 2 110 c0 60 4 106 8 101 4 -4 20 -37 36 -73z m-3029 -75 c49 -9
218 -48 377 -87 l287 -72 0 -118 c0 -101 -2 -118 -16 -118 -9 0 -118 27 -242
60 -289 76 -392 93 -562 93 -297 0 -558 -109 -809 -338 l-44 -40 7 80 c3 44 9
124 13 179 l6 98 66 49 c133 97 324 183 477 213 95 19 331 20 440 1z m3039
-180 c115 -173 204 -480 225 -773 24 -338 -55 -654 -244 -982 l-26 -45 0 60
c-4 312 2 432 25 525 62 250 60 515 -6 785 -22 91 -39 485 -21 485 6 0 27 -25
47 -55z m-578 -81 c94 -46 180 -147 239 -283 191 -441 112 -942 -217 -1384
-83 -112 -205 -247 -222 -247 -6 0 -56 27 -112 60 l-101 60 111 112 c198 201
319 422 370 676 24 118 17 340 -14 434 -24 74 -72 151 -113 181 -33 24 -98 26
-133 3 -43 -29 -92 -106 -146 -235 -63 -151 -128 -250 -219 -334 -124 -115
-271 -175 -451 -184 -181 -10 -319 21 -621 139 l-128 49 0 130 c0 71 3 129 6
129 3 0 76 -22 163 -49 215 -68 309 -84 446 -79 134 6 201 29 275 95 76 68
105 118 165 278 62 168 101 231 196 319 158 146 365 199 506 130z m-2342 -24
c122 -24 525 -129 538 -140 5 -5 6 -57 2 -117 l-7 -109 -167 48 c-254 73 -346
90 -514 96 -172 5 -262 -6 -387 -50 -211 -74 -401 -215 -561 -419 -34 -43 -63
-78 -65 -76 -4 5 27 374 33 393 19 50 243 223 380 293 212 107 472 135 748 81z
m25 -256 c94 -14 286 -62 430 -107 l75 -24 3 -116 c1 -64 0 -117 -3 -117 -3 0
-74 20 -158 44 -324 94 -559 104 -777 34 -82 -26 -207 -90 -274 -140 -226
-169 -426 -472 -527 -803 l-19 -60 5 60 c3 33 14 179 25 325 27 357 23 339 77
412 150 204 335 357 528 436 191 78 363 94 615 56z m2876 -179 c27 -142 27
-472 0 -600 -10 -49 -21 -93 -25 -97 -4 -4 -8 178 -9 404 -1 234 2 408 7 402
5 -5 17 -54 27 -109z m-619 49 c13 -8 36 -38 52 -66 95 -165 100 -450 14 -693
-69 -193 -221 -420 -370 -553 l-70 -61 -114 68 c-109 65 -1001 591 -1141 674
-38 21 -68 46 -68 53 0 8 2 14 5 14 2 0 60 -22 127 -49 338 -135 553 -167 766
-116 146 35 294 128 386 244 65 80 101 144 157 276 57 134 95 191 144 215 42
22 73 20 112 -6z m2751 -282 l-3 -295 -65 -40 c-166 -102 -340 -207 -343 -207
-10 0 -14 160 -7 248 23 264 139 501 277 568 40 19 110 33 131 26 10 -3 12
-69 10 -300z m113 250 c84 -54 277 -275 422 -484 76 -109 144 -230 192 -341
l34 -78 -222 114 c-122 63 -277 142 -343 176 -67 34 -126 67 -132 74 -11 14
-15 567 -3 567 4 0 27 -13 52 -28z m-4976 -127 c61 -12 168 -39 238 -60 l128
-38 -3 -131 c-3 -110 -5 -130 -18 -128 -8 2 -69 19 -135 38 -223 64 -379 78
-535 48 -174 -33 -306 -102 -438 -228 -169 -162 -276 -369 -332 -642 -11 -54
-24 -102 -29 -107 -17 -17 -295 -167 -300 -162 -10 11 20 295 39 370 68 260
170 473 315 660 269 345 623 471 1070 380z m90 -305 c50 -11 131 -34 181 -50
142 -47 144 -45 -230 -252 -171 -95 -495 -274 -721 -399 -225 -125 -411 -227
-412 -225 -1 1 7 45 17 98 93 451 361 758 736 842 94 21 307 14 429 -14z
m2555 -732 l0 -203 -89 -110 c-49 -60 -114 -137 -143 -169 l-54 -59 -64 36
c-113 63 -111 59 -69 104 134 141 310 389 378 531 19 40 36 72 38 72 2 0 3
-91 3 -202z m-46 -594 c-25 -30 -49 -54 -54 -54 -7 0 -157 85 -168 95 -2 2 27
36 63 76 37 41 97 112 133 158 l67 83 3 -152 3 -152 -47 -54z m46 -49 l0 -65
-40 20 -40 21 37 44 c20 25 39 45 40 45 2 0 3 -29 3 -65z"/>
<path d="M5541 6725 c41 -91 59 -175 59 -280 0 -110 -18 -186 -68 -285 -44
-89 -142 -193 -248 -263 -76 -50 -123 -93 -74 -67 65 34 174 117 232 178 74
77 127 166 157 266 26 85 29 239 5 329 -19 74 -69 187 -83 187 -5 0 4 -29 20
-65z"/>
<path d="M7910 6975 c-113 -23 -250 -86 -386 -177 -203 -136 -329 -289 -380
-464 -21 -74 -22 -199 -1 -281 22 -83 222 -477 264 -519 57 -58 132 -57 200 1
40 34 248 288 381 464 139 186 237 374 278 531 25 97 16 239 -19 306 -62 120
-185 171 -337 139z m222 -41 c110 -56 158 -199 123 -369 -45 -215 -161 -414
-464 -791 -177 -220 -226 -264 -296 -264 -61 0 -93 42 -213 280 -117 234 -135
289 -134 415 2 241 188 482 503 649 214 114 364 139 481 80z"/>
<path d="M7746 6655 c-119 -49 -250 -164 -309 -273 -29 -54 -57 -150 -57 -197
0 -53 29 -133 61 -170 88 -100 222 -50 378 143 148 181 212 367 160 463 -32
61 -132 76 -233 34z m191 -11 c30 -19 47 -77 40 -140 -12 -115 -129 -309 -260
-430 -99 -91 -170 -114 -235 -74 -75 46 -101 200 -54 320 85 216 380 404 509
324z"/>
<path d="M2952 7264 c-86 -43 -140 -126 -120 -185 20 -60 133 -83 230 -46 61
24 118 86 118 130 0 68 -66 127 -142 127 -19 0 -57 -12 -86 -26z m180 -33 c72
-80 -1 -177 -148 -196 -94 -12 -158 37 -134 101 19 49 50 82 103 109 72 36
138 31 179 -14z"/>
</g>
</svg>
